G04 Layer: BottomLayer*
G04 EasyEDA v6.5.51, 2026-03-07 16:15:03*
G04 f103204ee04d4b30b2a99b46d77af7d9,16370583bc044fc7845e11f8c778a244,10*
G04 Gerber Generator version 0.2*
G04 Scale: 100 percent, Rotated: No, Reflected: No *
G04 Dimensions in inches *
G04 leading zeros omitted , absolute positions ,3 integer and 6 decimal *
%FSLAX36Y36*%
%MOIN*%

%ADD10R,0.0620X0.0620*%
%ADD11C,0.0620*%
%ADD12R,0.0709X0.0709*%
%ADD13C,0.0709*%
%ADD14O,0.066929X0.094488*%
%ADD15O,0.0197X0.094488*%
%ADD16R,0.0787X0.0787*%
%ADD17C,0.0866*%

%LPD*%
D10*
G01*
X1225000Y620000D03*
D11*
G01*
X1225000Y520000D03*
D12*
G01*
X2255000Y2646579D03*
D13*
G01*
X2255000Y2745000D03*
G01*
X2255000Y2843420D03*
D14*
G01*
X1640000Y1795000D03*
G01*
X1540000Y1795000D03*
G01*
X1440000Y1795000D03*
G01*
X1340000Y1795000D03*
G01*
X1240000Y1795000D03*
G01*
X1140000Y1795000D03*
G01*
X1040000Y1795000D03*
G01*
X940000Y1795000D03*
G01*
X840000Y1795000D03*
G01*
X740000Y1795000D03*
G01*
X640000Y1795000D03*
G01*
X540000Y1795000D03*
G01*
X440000Y1795000D03*
G01*
X340000Y1795000D03*
G01*
X240000Y1795000D03*
G01*
X1640000Y2795000D03*
G01*
X1540000Y2795000D03*
G01*
X1440000Y2795000D03*
G01*
X1340000Y2795000D03*
G01*
X1240000Y2795000D03*
G01*
X1140000Y2795000D03*
G01*
X1040000Y2795000D03*
G01*
X940000Y2795000D03*
G01*
X840000Y2795000D03*
G01*
X740000Y2795000D03*
G01*
X640000Y2795000D03*
G01*
X540000Y2795000D03*
G01*
X440000Y2795000D03*
G01*
X340000Y2795000D03*
G01*
X240000Y2795000D03*
D12*
G01*
X2255000Y1740000D03*
D13*
G01*
X2255000Y1840000D03*
D16*
G01*
X65000Y845000D03*
G01*
X65000Y295000D03*
G01*
X965000Y295000D03*
G01*
X965000Y845000D03*
G01*
X965000Y725000D03*
G01*
X965000Y415000D03*
D17*
G01*
X1423419Y990000D03*
G01*
X1226580Y990000D03*
G01*
X4327420Y998000D03*
G01*
X4130580Y998000D03*
D16*
G01*
X2968999Y853000D03*
G01*
X2968999Y303000D03*
G01*
X3868999Y303000D03*
G01*
X3868999Y853000D03*
G01*
X3868999Y733000D03*
G01*
X3868999Y423000D03*
D12*
G01*
X5158999Y1748000D03*
D13*
G01*
X5158999Y1848000D03*
D14*
G01*
X4543999Y1803000D03*
G01*
X4443999Y1803000D03*
G01*
X4343999Y1803000D03*
G01*
X4243999Y1803000D03*
G01*
X4143999Y1803000D03*
G01*
X4043999Y1803000D03*
G01*
X3943999Y1803000D03*
G01*
X3843999Y1803000D03*
G01*
X3743999Y1803000D03*
G01*
X3643999Y1803000D03*
G01*
X3543999Y1803000D03*
G01*
X3443999Y1803000D03*
G01*
X3343999Y1803000D03*
G01*
X3243999Y1803000D03*
G01*
X3143999Y1803000D03*
G01*
X4543999Y2803000D03*
G01*
X4443999Y2803000D03*
G01*
X4343999Y2803000D03*
G01*
X4243999Y2803000D03*
G01*
X4143999Y2803000D03*
G01*
X4043999Y2803000D03*
G01*
X3943999Y2803000D03*
G01*
X3843999Y2803000D03*
G01*
X3743999Y2803000D03*
G01*
X3643999Y2803000D03*
G01*
X3543999Y2803000D03*
G01*
X3443999Y2803000D03*
G01*
X3343999Y2803000D03*
G01*
X3243999Y2803000D03*
G01*
X3143999Y2803000D03*
D12*
G01*
X5158999Y2654580D03*
D13*
G01*
X5158999Y2753000D03*
G01*
X5158999Y2851419D03*
D10*
G01*
X4128999Y628000D03*
D11*
G01*
X4128999Y528000D03*
M02*
